<svg xmlns="http://www.w3.org/2000/svg" width="1356.338" height="935.441" viewBox="0 0 1356.338 935.441">
  <g id="Group_1064" data-name="Group 1064" transform="translate(-6332 -5287)">
    <rect id="Rectangle_119" data-name="Rectangle 119" width="810" height="810" rx="180" transform="translate(6332 5287)" fill="#207da1" opacity="0.5"/>
    <g id="arrow" transform="translate(6752.663 5388.158)">
      <g id="Group_318" data-name="Group 318" transform="translate(0 31.842)">
        <path id="Path_57" data-name="Path 57" d="M879.437,367.388a66.871,66.871,0,0,0-11.58-.858h-660.1l14.394-6.695a133.89,133.89,0,0,0,37.825-26.779L445.084,147.948a69.29,69.29,0,0,0,9.707-88.705,66.941,66.941,0,0,0-100.421-8.7L19.635,385.275a66.947,66.947,0,0,0-.052,94.678l.052.052L354.37,814.741a66.949,66.949,0,0,0,100.421-6.695,69.29,69.29,0,0,0-9.707-88.705L260.31,533.9a133.9,133.9,0,0,0-33.474-24.436l-20.084-9.038H864.173A69.291,69.291,0,0,0,934.8,444.189,66.948,66.948,0,0,0,879.437,367.388Z" transform="translate(0 -31.842)" fill="#d57c44"/>
      </g>
    </g>
  </g>
</svg>
